<svg viewBox="0 0 12 12" height="12" width="12" xmlns="http://www.w3.org/2000/svg" xmlns:xlink="http://www.w3.org/1999/xlink" fill="none">
	<rect id="li:map-pin" x="0.000000" y="0.000000" fill="rgb(255,255,255)" fill-opacity="0" />
	<path id="Vector" d="M6 1.5C5.07174 1.5 4.1815 1.86875 3.52513 2.52513C2.86875 3.1815 2.5 4.07174 2.5 5C2.5 6.07966 3.10834 7.24333 3.89887 8.28199C4.66301 9.28598 5.53985 10.099 6 10.4983C6.46015 10.099 7.33699 9.28598 8.10113 8.28199C8.89166 7.24333 9.5 6.07966 9.5 5C9.5 4.07174 9.13125 3.1815 8.47487 2.52513C7.8185 1.86875 6.92826 1.5 6 1.5ZM2.81802 1.81802C3.66193 0.974106 4.80653 0.5 6 0.5C7.19347 0.5 8.33807 0.974106 9.18198 1.81802C10.0259 2.66193 10.5 3.80653 10.5 5C10.5 6.41684 9.72359 7.80142 8.89687 8.88763C8.05856 9.98907 7.10486 10.8656 6.62727 11.2779C6.61875 11.2853 6.60999 11.2924 6.601 11.2991C6.42772 11.4294 6.2168 11.4999 6 11.4999C5.7832 11.4999 5.57228 11.4294 5.399 11.2991C5.39001 11.2924 5.38125 11.2853 5.37273 11.2779C4.89514 10.8656 3.94144 9.98907 3.10313 8.88763C2.27641 7.80142 1.5 6.41684 1.5 5C1.5 3.80653 1.97411 2.66193 2.81802 1.81802Z" fill="rgb(235,67,53)" fill-rule="evenodd" />
	<path id="Vector" d="M6 1.5C5.07174 1.5 4.1815 1.86875 3.52513 2.52513C2.86875 3.1815 2.5 4.07174 2.5 5C2.5 6.07966 3.10834 7.24333 3.89887 8.28199C4.66301 9.28598 5.53985 10.099 6 10.4983C6.46015 10.099 7.33699 9.28598 8.10113 8.28199C8.89166 7.24333 9.5 6.07966 9.5 5C9.5 4.07174 9.13125 3.1815 8.47487 2.52513C7.8185 1.86875 6.92826 1.5 6 1.5Z" fill="rgb(235,67,53)" fill-rule="evenodd" />
	<path id="Vector" d="M6 1.5C5.07174 1.5 4.1815 1.86875 3.52513 2.52513C2.86875 3.1815 2.5 4.07174 2.5 5C2.5 6.07966 3.10834 7.24333 3.89887 8.28199C4.66301 9.28598 5.53985 10.099 6 10.4983C6.46015 10.099 7.33699 9.28598 8.10113 8.28199C8.89166 7.24333 9.5 6.07966 9.5 5C9.5 4.07174 9.13125 3.1815 8.47487 2.52513C7.8185 1.86875 6.92826 1.5 6 1.5Z" fill="rgb(235,67,53)" fill-rule="evenodd" />
	<path id="Vector" d="M6 4C5.44772 4 5 4.44772 5 5C5 5.55228 5.44772 6 6 6C6.55228 6 7 5.55228 7 5C7 4.44772 6.55228 4 6 4ZM4 5C4 3.89543 4.89543 3 6 3C7.10457 3 8 3.89543 8 5C8 6.10457 7.10457 7 6 7C4.89543 7 4 6.10457 4 5Z" fill="rgb(255,255,255)" fill-rule="evenodd" />
	<path id="Vector" d="M6 4C5.44772 4 5 4.44772 5 5C5 5.55228 5.44772 6 6 6C6.55228 6 7 5.55228 7 5C7 4.44772 6.55228 4 6 4Z" fill="rgb(255,255,255)" fill-rule="evenodd" />
	<path id="Vector" d="M6 4C5.44772 4 5 4.44772 5 5C5 5.55228 5.44772 6 6 6C6.55228 6 7 5.55228 7 5C7 4.44772 6.55228 4 6 4Z" fill="rgb(255,255,255)" fill-rule="evenodd" />
</svg>
